<?xml version="1.0" standalone="no"?>
<!DOCTYPE svg PUBLIC "-//W3C//DTD SVG 20010904//EN"
 "http://www.w3.org/TR/2001/REC-SVG-20010904/DTD/svg10.dtd">
<svg version="1.0" xmlns="http://www.w3.org/2000/svg"
 width="592.000000pt" height="345.000000pt" viewBox="0 0 592.000000 345.000000"
 preserveAspectRatio="xMidYMid meet">

<g transform="translate(0.000000,345.000000) scale(0.100000,-0.100000)"
fill="#000000" stroke="none">
<path d="M2245 3087 c-22 -13 -233 -137 -470 -276 l-430 -252 -110 -147 c-147
-197 -290 -395 -304 -419 -5 -11 -7 -23 -4 -27 13 -12 59 -6 95 14 42 22 142
38 151 23 3 -5 9 -61 13 -125 6 -108 6 -116 -12 -121 -102 -30 -394 -82 -514
-91 l-144 -11 -7 -31 c-3 -17 -9 -36 -13 -42 -3 -6 -72 -45 -152 -86 -80 -42
-166 -91 -192 -109 -25 -17 -51 -35 -56 -39 -6 -4 -8 -10 -4 -13 3 -3 34 11
69 33 85 51 268 148 298 157 22 7 23 5 16 -27 -4 -18 -29 -106 -56 -196 -27
-89 -49 -167 -49 -172 0 -5 12 -10 28 -12 l27 -3 3 -252 2 -253 210 0 210 0 0
-44 0 -44 30 29 c28 29 57 31 47 4 -3 -6 3 -19 14 -28 10 -9 19 -28 19 -41 0
-21 -6 -25 -42 -32 l-43 -7 30 -13 c17 -8 46 -11 66 -8 40 6 44 0 63 -88 8
-36 19 -35 33 2 13 36 33 40 33 6 0 -53 -12 -85 -34 -89 -19 -3 -18 -5 9 -17
17 -8 38 -20 47 -28 9 -7 27 -12 40 -10 21 3 23 9 28 73 l5 70 43 -1 c29 0 50
-8 65 -23 l24 -21 11 25 c13 28 42 34 42 9 0 -9 -7 -32 -16 -51 -15 -29 -15
-36 -3 -47 20 -19 74 -35 88 -26 16 10 30 73 31 137 l0 52 -32 -7 c-18 -4 -73
-7 -123 -7 -110 0 -218 30 -270 76 -31 27 -91 121 -110 171 -14 36 36 44 278
43 l228 0 45 -47 c49 -52 55 -80 23 -114 -17 -19 -20 -30 -14 -63 4 -23 11
-38 17 -35 5 3 7 17 4 29 -4 17 0 28 15 38 13 10 23 31 27 63 l7 49 758 6
c416 3 760 9 764 12 3 4 -79 8 -183 8 -230 2 -562 14 -479 18 33 2 105 7 160
11 l100 7 -85 2 c-47 1 -103 6 -125 10 -26 6 37 9 183 10 l222 1 0 500 0 499
-62 4 -63 3 73 2 72 2 0 -147 c0 -214 12 -704 18 -699 2 3 7 58 12 123 l7 118
3 -180 c5 -281 16 -94 25 423 l8 432 -660 0 -660 0 -6 -322 c-4 -178 -7 -432
-7 -565 l0 -243 -42 0 c-29 0 -51 8 -76 27 -47 36 -96 52 -159 53 -29 0 -53 2
-53 5 0 3 -13 137 -29 298 -17 160 -40 405 -52 543 l-22 251 148 204 c81 112
164 221 184 242 38 41 189 145 538 371 l213 138 42 -25 c24 -14 185 -113 358
-220 l315 -195 60 -78 c182 -240 325 -448 325 -473 0 -14 -11 -159 -25 -321
-13 -162 -27 -351 -29 -420 l-5 -125 20 170 c11 93 22 171 25 174 2 3 12 -3
22 -12 15 -15 17 -40 17 -180 0 -159 -1 -163 -28 -214 -33 -60 -31 -95 10
-143 28 -34 27 -59 -4 -71 -36 -13 -63 17 -73 81 l-8 55 1 -70 c2 -66 3 -70
29 -79 22 -8 38 -4 82 18 68 35 178 55 199 38 8 -7 40 -64 72 -127 41 -83 59
-132 66 -181 10 -72 24 -98 46 -90 8 3 24 -5 36 -18 18 -18 30 -22 62 -18 53
5 65 23 65 99 0 59 2 63 26 69 67 17 193 -26 222 -75 10 -18 25 -31 37 -31 11
0 29 -7 39 -15 24 -18 116 -20 116 -4 0 8 -16 10 -49 6 l-49 -6 -12 82 c-15
101 -24 121 -50 107 -10 -6 -74 -11 -142 -13 l-123 -2 -8 63 c-7 48 -12 61
-21 52 -7 -7 -10 -57 -8 -156 l2 -144 -24 0 c-31 0 -46 25 -47 82 -1 69 -21
123 -45 123 -33 0 -52 22 -116 132 -33 57 -69 108 -80 114 -11 6 -33 9 -51 7
-29 -3 -32 0 -39 36 -5 21 -21 58 -37 81 l-29 43 31 50 c31 49 33 50 77 49 25
-1 52 2 61 6 13 7 16 4 12 -16 -3 -14 0 -28 6 -31 19 -12 12 -26 -14 -26 -30
0 -32 -11 -4 -36 16 -15 23 -16 37 -6 44 31 71 34 337 30 251 -3 273 -5 317
-25 76 -35 82 -53 88 -298 5 -204 5 -208 18 -144 6 36 12 80 12 98 l0 33 31
-26 c35 -30 64 -39 105 -34 39 4 38 32 -1 36 -51 6 -55 16 -53 121 1 75 -2
103 -16 130 -24 45 -12 52 84 49 l75 -3 5 -98 c4 -89 7 -101 29 -118 25 -20
76 -26 86 -9 4 6 -6 10 -23 10 -33 0 -46 12 -55 51 -9 36 -10 520 -2 542 12
28 53 33 78 9 19 -20 21 -36 27 -242 4 -121 9 -223 12 -226 3 -3 9 16 12 41
l7 46 87 -3 87 -3 5 -98 c5 -90 7 -100 30 -117 27 -21 75 -26 85 -10 4 6 -6
10 -24 10 -58 0 -61 14 -61 317 0 291 2 303 51 303 30 0 37 -34 49 -227 12
-205 18 -255 31 -247 5 3 9 21 9 40 l0 34 69 0 c99 0 101 -1 101 -75 0 -34 5
-77 11 -96 20 -62 72 -86 115 -55 17 13 15 14 -22 9 -33 -4 -42 -2 -48 12 -12
32 -28 336 -24 447 3 77 9 113 21 132 21 31 52 34 67 5 7 -11 16 -113 21 -227
10 -207 20 -268 33 -199 8 41 19 47 86 47 50 0 74 15 49 31 -8 5 -40 9 -71 9
l-58 0 0 55 0 55 43 1 42 1 -37 10 -38 10 0 66 c-1 80 -15 150 -37 174 -18 20
-73 24 -103 8 -28 -15 -40 -64 -40 -161 l0 -89 -84 0 -84 0 -4 100 c-5 125
-21 153 -90 158 -68 5 -81 -16 -88 -143 -3 -57 -8 -106 -10 -108 -3 -3 -40 -2
-82 0 l-78 6 0 76 c0 91 -14 147 -40 161 -10 5 -36 10 -58 10 -63 0 -76 -23
-80 -140 l-4 -98 -36 -6 c-21 -3 -58 -6 -84 -6 l-48 0 0 73 c0 80 -13 139 -36
162 -9 9 -33 15 -59 15 -36 0 -48 -5 -65 -28 -21 -25 -22 -34 -16 -124 l7 -98
-91 0 -90 0 0 43 c-1 75 -18 169 -36 188 -18 20 -87 26 -112 10 -22 -13 -32
-81 -25 -163 l6 -78 -96 0 -95 0 -4 104 c-4 125 -16 146 -84 146 -60 0 -71
-20 -80 -148 l-7 -102 -88 0 -89 0 0 98 c0 106 -11 135 -56 152 -20 8 -24 17
-24 47 0 42 14 178 31 296 l11 77 32 0 c65 0 799 -125 1033 -176 148 -32 176
-31 271 10 226 97 520 171 874 221 53 8 82 30 53 41 -27 11 -137 -4 -345 -46
-234 -47 -391 -93 -564 -166 l-129 -54 -63 15 c-108 25 -788 144 -973 170 -95
13 -176 26 -178 29 -3 3 0 60 7 126 12 114 15 122 37 131 39 15 71 11 121 -16
80 -43 111 -28 68 33 -93 134 -406 505 -469 555 -39 32 -771 473 -857 517 -49
25 -56 25 -105 -3z m354 -189 c152 -89 338 -198 414 -242 75 -44 161 -99 191
-122 79 -62 480 -526 473 -547 -7 -22 -27 -17 -65 18 -36 32 -44 35 -80 29
-71 -11 -108 20 -292 251 l-111 140 -212 128 c-243 147 -512 304 -575 336
l-43 22 -92 -52 c-280 -158 -735 -434 -752 -456 -11 -14 -73 -97 -138 -184
-64 -87 -129 -167 -144 -178 -26 -21 -113 -30 -113 -12 0 10 133 186 267 352
91 114 96 118 221 192 156 92 591 340 688 392 l72 38 83 -48 c235 -135 654
-385 730 -436 47 -32 112 -86 143 -121 31 -35 56 -58 56 -53 0 25 -147 168
-225 219 -123 81 -781 476 -791 476 -5 0 -210 -120 -455 -268 l-446 -267 -176
-225 c-190 -244 -238 -300 -257 -300 -21 0 4 35 238 337 l164 213 167 97 c384
224 463 270 606 349 82 46 156 84 164 84 7 0 138 -73 290 -162z m-222 -68 c55
-31 528 -307 704 -412 27 -17 273 -310 306 -366 21 -35 26 -56 25 -104 -1
-101 12 -114 -215 190 l-152 202 -230 139 c-363 218 -490 291 -508 291 -32 0
-710 -440 -758 -492 -17 -18 -92 -114 -167 -214 -75 -99 -141 -181 -147 -182
-5 -2 -15 34 -21 79 l-10 81 142 181 141 182 369 214 c203 118 383 223 399
232 17 10 34 19 39 19 5 0 42 -18 83 -40z m-532 -1132 c-65 -5 -120 -10 -122
-11 -1 -2 1 -225 5 -497 l7 -495 247 -5 c135 -3 250 -8 254 -12 4 -5 -110 -8
-254 -8 l-262 0 -6 27 c-10 36 -11 973 -2 996 7 15 22 17 130 16 l123 -2 -120
-9z m490 -5 c8 -18 24 -988 17 -1010 -5 -16 -41 -23 -49 -10 -13 20 -16 978
-4 1010 12 31 26 35 36 10z m-64 -194 c8 -203 8 -529 0 -604 l-6 -60 -39 60
c-73 112 -176 277 -176 282 0 3 41 87 91 187 106 212 91 202 -34 -24 l-89
-159 100 -173 c116 -203 145 -258 134 -258 -8 0 -57 75 -182 275 -37 61 -72
109 -76 109 -5 -1 -51 -78 -104 -171 -53 -93 -104 -180 -113 -194 -39 -55 -10
13 87 206 l103 206 -103 205 c-101 199 -127 268 -84 216 11 -13 49 -78 86
-145 127 -233 125 -230 140 -215 7 7 47 78 89 158 89 170 146 261 160 257 6
-2 13 -69 16 -158z m559 150 c0 -10 -68 -137 -166 -308 l-42 -74 -30 59 c-17
32 -62 118 -101 189 l-71 130 37 6 c69 11 373 10 373 -2z m50 -11 c0 -31 -41
-116 -150 -307 -64 -113 -89 -166 -82 -174 12 -15 196 -356 205 -380 15 -40
-14 -2 -69 90 -123 210 -140 236 -156 247 -9 5 -19 8 -21 6 -2 -3 -46 -81 -99
-175 -108 -190 -127 -219 -128 -193 0 15 78 171 176 354 l38 71 -66 119 c-93
167 -148 284 -148 313 1 25 1 25 16 6 8 -11 55 -94 105 -185 113 -206 115
-209 133 -190 8 8 58 97 110 198 108 205 118 222 128 222 5 0 8 -10 8 -22z
m-766 -155 c-52 -93 -101 -174 -108 -181 -17 -17 -22 -9 -126 192 l-82 156
205 0 206 0 -95 -167z m-902 128 c6 -6 49 -463 44 -469 -2 -1 -199 -1 -438 0
l-435 3 80 243 80 244 331 -7 c182 -4 334 -10 338 -14z m649 -263 l92 -163
-84 -162 c-91 -176 -106 -200 -115 -190 -6 6 5 677 12 677 1 0 44 -73 95 -162z
m1015 115 c9 -59 -3 -537 -14 -577 -8 -28 -13 -21 -99 130 l-92 159 69 131
c73 141 111 204 122 204 4 0 10 -21 14 -47z m-398 -115 c45 -79 84 -150 87
-159 4 -10 -6 -41 -21 -70 -37 -74 -155 -279 -160 -279 -2 0 -4 149 -4 331 0
191 4 328 9 325 5 -3 45 -70 89 -148z m1293 -125 c5 -13 9 -80 9 -147 0 -140
-7 -157 -54 -128 -68 41 -75 263 -10 300 24 13 44 4 55 -25z m341 10 c16 -14
18 -33 18 -150 l0 -133 -56 0 -56 0 4 128 c2 77 8 136 16 150 15 26 48 29 74
5z m353 -7 c13 -19 16 -57 16 -196 0 -95 -3 -175 -6 -178 -3 -3 -26 13 -52 35
l-48 41 1 141 c0 121 3 143 19 161 24 27 51 25 70 -4z m-3896 -117 c31 0 50
-3 44 -6 -10 -3 -13 -49 -13 -180 l0 -176 91 7 c128 10 148 15 154 40 3 11 10
77 15 144 13 139 22 172 47 172 17 0 18 -13 15 -181 l-3 -182 94 7 c129 10
149 16 158 51 5 15 11 88 15 161 l7 134 -129 1 c-116 1 -123 2 -69 10 33 5
105 8 160 7 l100 -3 11 -115 c7 -63 15 -154 19 -202 l7 -88 -39 -1 c-21 0 -70
-6 -109 -13 -46 -8 -80 -9 -98 -3 -35 12 -83 2 -141 -28 -45 -24 -53 -25 -244
-25 l-199 0 -6 31 c-3 17 -6 126 -6 242 l0 210 31 -7 c17 -3 57 -6 88 -7z
m1479 -112 c70 -111 162 -269 162 -278 0 -5 -91 -9 -210 -9 -115 0 -210 3
-210 8 1 29 191 342 209 342 5 0 27 -28 49 -63z m615 6 c39 -64 157 -275 157
-280 0 -2 -90 -3 -201 -3 -177 0 -200 2 -195 15 19 50 189 325 201 325 2 0 19
-26 38 -57z"/>
<path d="M2025 2479 c22 -4 74 -9 115 -10 l75 -2 -95 -7 c-52 -4 -119 -8 -147
-9 l-53 -1 -2 -222 -2 -223 -6 155 c-4 85 -9 171 -10 190 -2 35 -3 34 -11 -10
-4 -25 -8 -143 -8 -263 l-1 -217 403 6 c221 3 408 7 415 10 9 2 12 73 12 309
l0 305 -362 -1 c-220 -1 -347 -5 -323 -10z m-22 -67 c-2 -8 12 -12 42 -12 l45
0 0 -220 0 -220 -27 0 c-68 0 -73 6 -73 85 0 108 -12 346 -18 341 -2 -3 -10
-67 -18 -143 l-13 -138 3 145 c2 80 7 153 11 163 8 20 52 20 48 -1z m202 -2
c-3 -6 36 -10 102 -12 l108 -3 5 -122 c3 -67 8 -124 11 -127 3 -4 8 55 11 129
3 75 8 139 12 142 17 18 21 -29 18 -248 l-2 -240 52 6 c90 10 97 13 104 43 12
54 14 58 24 42 6 -8 10 -13 11 -10 1 3 5 97 9 210 l6 205 2 -267 2 -268 -76 0
c-41 0 -73 4 -70 9 7 11 -148 21 -349 22 -128 1 -152 3 -122 11 26 7 41 18 48
35 5 13 9 121 9 239 l0 214 46 0 c26 0 43 -4 39 -10z m403 -237 l2 -213 -53 0
-54 0 -7 188 c-4 123 -3 198 4 216 9 25 14 27 57 24 l48 -3 3 -212z"/>
</g>
</svg>
