<?xml version="1.0" standalone="no"?>
<!DOCTYPE svg PUBLIC "-//W3C//DTD SVG 20010904//EN"
 "http://www.w3.org/TR/2001/REC-SVG-20010904/DTD/svg10.dtd">
<svg version="1.0" xmlns="http://www.w3.org/2000/svg"
 width="512.000000pt" height="512.000000pt" viewBox="0 0 512.000000 512.000000"
 preserveAspectRatio="xMidYMid meet">

<g transform="translate(0.000000,512.000000) scale(0.100000,-0.100000)"
fill="#000000" stroke="none">
<path d="M186 4504 c-67 -21 -147 -101 -170 -172 -16 -46 -17 -95 -14 -489 4
-415 5 -442 27 -518 75 -271 258 -497 499 -619 46 -23 53 -31 48 -49 -63 -222
-88 -387 -89 -592 -1 -184 18 -298 54 -328 30 -25 71 -21 99 8 23 25 23 26 11
127 -7 57 -14 115 -16 130 -7 44 13 289 30 383 115 614 514 1132 1074 1398
527 249 1141 245 1666 -12 141 -69 267 -150 387 -249 70 -58 93 -72 121 -72
38 0 62 21 72 61 5 21 0 34 -25 63 -24 27 -121 109 -169 142 -2 2 8 22 22 46
59 101 174 179 292 198 33 5 151 10 263 10 l202 0 0 -209 c0 -114 -5 -233 -10
-262 -23 -121 -110 -243 -210 -294 l-48 -24 -61 84 c-67 92 -93 115 -129 115
-30 0 -72 -43 -72 -73 0 -13 11 -39 24 -58 200 -281 287 -455 355 -710 67
-253 85 -542 42 -714 -29 -120 -113 -289 -194 -391 -291 -365 -884 -621 -1565
-674 -291 -23 -666 30 -1007 141 -184 60 -433 182 -565 276 -120 86 -250 215
-323 319 -57 82 -71 94 -108 94 -28 0 -69 -44 -69 -74 0 -58 177 -274 317
-388 323 -262 760 -432 1298 -504 556 -75 1272 77 1739 368 383 239 604 560
646 940 19 167 -5 413 -60 627 -17 63 -30 115 -30 117 0 2 24 16 52 30 278
140 471 409 517 721 7 42 11 236 11 466 0 458 0 458 -85 544 -85 85 -88 85
-592 80 -488 -4 -512 -7 -691 -92 -186 -88 -348 -241 -435 -411 l-16 -30 -101
33 c-245 80 -536 115 -787 95 -174 -14 -354 -49 -493 -96 l-100 -33 -29 51
c-141 249 -387 420 -677 471 -125 22 -856 21 -928 -1z m964 -158 c96 -26 257
-108 321 -163 30 -26 77 -73 103 -104 51 -59 113 -159 99 -159 -4 0 -53 -25
-108 -55 -54 -30 -100 -55 -102 -55 -1 0 -18 25 -38 55 -78 117 -217 212 -354
241 -47 10 -144 14 -344 14 l-278 0 -24 -25 -25 -24 0 -283 c0 -314 7 -363 62
-476 40 -81 139 -187 215 -231 l60 -35 -50 -105 c-28 -58 -51 -108 -53 -110
-6 -7 -65 21 -122 59 -120 78 -238 219 -295 355 -59 142 -60 146 -64 600 -4
388 -2 423 14 455 36 71 37 71 503 67 358 -3 424 -6 480 -21z m3750 6 c71 -35
71 -36 67 -507 -3 -400 -5 -424 -26 -494 -54 -180 -152 -325 -291 -430 -70
-52 -156 -100 -164 -90 -1 2 -25 52 -53 110 l-50 106 46 24 c71 37 191 163
228 240 56 114 63 163 63 477 l0 283 -25 24 -24 25 -278 0 c-200 0 -297 -4
-344 -14 -137 -29 -276 -124 -354 -241 -20 -30 -37 -55 -39 -55 -1 0 -37 20
-80 44 -42 24 -90 50 -107 56 l-29 13 26 46 c124 213 345 359 599 394 17 2
203 5 415 5 348 2 388 0 420 -16z m-3887 -392 c81 -13 158 -50 218 -106 46
-44 107 -130 98 -139 -2 -2 -31 -24 -64 -49 -100 -77 -272 -255 -362 -373
l-84 -113 -48 25 c-103 52 -187 170 -211 294 -5 30 -10 148 -10 262 l0 209
203 0 c111 0 228 -4 260 -10z"/>
<path d="M1679 3044 c-78 -24 -149 -118 -149 -200 0 -37 37 -74 74 -74 37 0
76 34 76 66 0 36 28 64 65 64 38 0 65 -28 65 -67 0 -59 81 -83 125 -38 64 63
-14 216 -128 250 -60 18 -68 18 -128 -1z"/>
<path d="M3309 3044 c-79 -24 -149 -118 -149 -202 0 -33 43 -72 80 -72 36 0
70 31 70 63 0 39 27 67 65 67 37 0 65 -28 65 -65 0 -29 41 -65 74 -65 33 0 76
41 76 72 0 86 -70 178 -153 203 -60 18 -68 18 -128 -1z"/>
<path d="M2385 2816 c-351 -68 -578 -291 -577 -565 1 -221 174 -422 441 -511
128 -43 206 -53 355 -47 189 7 309 43 446 132 171 111 261 259 261 430 2 251
-194 461 -507 545 -101 28 -317 36 -419 16z m388 -165 c158 -41 304 -146 357
-256 35 -72 39 -171 9 -250 -45 -120 -193 -233 -364 -280 -86 -23 -249 -30
-342 -15 -157 25 -276 82 -369 176 -93 93 -127 211 -93 323 43 144 224 276
436 316 101 19 262 13 366 -14z"/>
<path d="M2272 2493 c-39 -15 -59 -174 -29 -233 26 -52 105 -52 132 0 20 38
20 161 0 199 -19 38 -60 51 -103 34z"/>
<path d="M2773 2488 c-32 -15 -46 -68 -41 -155 3 -64 7 -78 27 -94 30 -24 72
-24 102 0 20 16 24 30 27 94 5 90 -9 140 -44 156 -30 13 -42 13 -71 -1z"/>
<path d="M2317 1508 c-9 -7 -20 -24 -26 -38 -30 -82 117 -180 269 -180 151 0
299 98 269 179 -21 55 -79 67 -127 26 -87 -73 -191 -73 -285 -1 -37 28 -74 33
-100 14z"/>
</g>
</svg>
