<?xml version="1.0" encoding="UTF-8" standalone="no"?>
<svg
   version="1.1"
   width="405"
   height="144"
   viewBox="0 0 405 144"
   id="svg136"
   sodipodi:docname="logo.svg"
   inkscape:version="1.2.2 (732a01da63, 2022-12-09)"
   xmlns:inkscape="http://www.inkscape.org/namespaces/inkscape"
   xmlns:sodipodi="http://sodipodi.sourceforge.net/DTD/sodipodi-0.dtd"
   xmlns="http://www.w3.org/2000/svg"
   xmlns:svg="http://www.w3.org/2000/svg">
  <defs
     id="defs140" />
  <sodipodi:namedview
     id="namedview138"
     pagecolor="#ffffff"
     bordercolor="#000000"
     borderopacity="0.25"
     inkscape:showpageshadow="2"
     inkscape:pageopacity="0.0"
     inkscape:pagecheckerboard="0"
     inkscape:deskcolor="#d1d1d1"
     showgrid="false"
     inkscape:zoom="2.5815225"
     inkscape:cx="212.08415"
     inkscape:cy="78.635766"
     inkscape:window-width="1920"
     inkscape:window-height="1001"
     inkscape:window-x="-9"
     inkscape:window-y="-9"
     inkscape:window-maximized="1"
     inkscape:current-layer="svg136" />
  <g
     id="tight-bounds"
     transform="matrix(3.1052632,0,0,3.1052632,0.80400847,-0.31052194)">
    <rect
       width="321.51605"
       height="112.4329"
       fill="none"
       stroke="none"
       visibility="hidden"
       id="rect129"
       x="0"
       y="134.76709"
       style="stroke-width:0.674408" />
  </g>
  <g
     id="g895"
     transform="matrix(1.2455473,0,0,1.2337954,1.7726081,-163.62748)">
    <svg
       viewBox="0 0 321.51606 247.2"
       height="247.2"
       width="321.51605"
       version="1.1"
       id="svg891">
      <g
         id="g887">
        <svg
           viewBox="0 0 397.4976 305.61897"
           height="247.2"
           width="321.51605"
           version="1.1"
           id="svg885">
          <g
             id="g861">
            <rect
               width="397.49759"
               height="9.3607054"
               x="0"
               y="167.95474"
               fill="#d498ca"
               opacity="1"
               stroke-width="0"
               stroke="transparent"
               fill-opacity="1"
               class="rect-o-0"
               data-fill-palette-color="secondary"
               rx="1%"
               id="rect859"
               data-palette-color="#d498ca" />
          </g>
          <g
             transform="translate(0.9888,201.81992)"
             id="g879">
            <svg
               viewBox="0 0 395.52 103.79905"
               height="103.79905"
               width="395.51999"
               version="1.1"
               id="svg877">
              <g
                 id="g875">
                <svg
                   viewBox="0 0 395.52 103.79905"
                   height="103.79905"
                   width="395.51999"
                   id="svg873"
                   version="1.1">
                  <g
                     id="g871">
                    <svg
                       viewBox="0 0 395.52 103.79905"
                       height="103.79905"
                       width="395.51999"
                       version="1.1"
                       id="svg869">
                      <g
                         id="g867">
                        <svg
                           width="395.51999"
                           viewBox="4 -35.700001 138.69 36.400002"
                           height="103.79905"
                           data-palette-color="#d498ca"
                           version="1.1"
                           id="svg865">
                          <path
                             d="M 9,0 H 4 v -35 h 11.55 q 3.52,0 6.2,1.12 2.68,1.13 4.16,3.63 1.49,2.5 1.49,6.6 v 0 q 0,4.02 -1.49,6.54 -1.48,2.51 -4.16,3.68 -2.68,1.18 -6.2,1.18 v 0 H 9 Z m 0,-30.75 v 14.25 h 5.85 q 3.83,0 5.74,-1.74 1.91,-1.74 1.91,-5.36 v 0 q 0,-3.65 -1.81,-5.4 -1.81,-1.75 -5.84,-1.75 v 0 z M 37.35,0 H 32.6 v -35 h 4.75 z m 23.1,0.7 v 0 q -4.86,0 -8.74,-2.24 -3.89,-2.24 -6.15,-6.34 -2.26,-4.1 -2.26,-9.67 v 0 q 0,-5.53 2.33,-9.6 2.34,-4.08 6.43,-6.31 4.08,-2.24 9.33,-2.24 v 0 q 2.83,0 5.39,0.59 2.56,0.59 4.47,1.41 v 0 l -0.45,4.15 q -2.05,-0.8 -4.36,-1.33 -2.3,-0.52 -4.89,-0.52 v 0 q -4.48,0 -7.37,1.86 -2.88,1.86 -4.29,5.01 -1.4,3.15 -1.4,7.03 v 0 q 0,4 1.43,7.14 1.42,3.13 4.38,4.95 2.94,1.81 7.5,1.81 v 0 q 1.12,0 2.79,-0.2 1.68,-0.2 3.05,-0.75 v 0 -8.7 h -5.5 v -4.3 h 10.25 v 15.6 Q 70.34,-0.83 67.3,-0.06 64.25,0.7 60.45,0.7 Z M 83.69,0 h -4.75 v -35 h 4.75 z m 12.75,0 h -4.75 v -35 h 21.35 v 4.3 h -16.6 v 10.25 h 12.8 v 4.3 h -12.8 z m 33.95,0 h -4.75 V -15.15 L 113.29,-35 h 5.4 l 10.4,17 h -2.2 l 10.4,-17 h 5.4 l -12.3,19.85 z"
                             opacity="1"
                             fill="#d498ca"
                             class="undefined-text-0"
                             data-fill-palette-color="primary"
                             id="path863" />
                        </svg>
                      </g>
                    </svg>
                  </g>
                </svg>
              </g>
            </svg>
          </g>
          <g
             transform="translate(115.47024)"
             id="g881" />
          <g
             id="g883" />
        </svg>
      </g>
      <defs
         id="defs889" />
    </svg>
    <rect
       width="321.51605"
       height="112.4329"
       fill="none"
       stroke="none"
       visibility="hidden"
       id="rect893"
       x="0"
       y="134.76709"
       style="stroke-width:0.674408" />
  </g>
  <path
     style="fill:#ff00cc;stroke-width:0.387368"
     d="M 254.88835,89.675763 V 40.09262 h 30.40841 30.40841 v 5.810524 5.810525 h -23.82775 -23.82776 l 0.10145,14.816838 0.10144,14.816837 18.30315,0.100635 18.30316,0.100634 v 5.806732 5.806733 h -18.4 -18.39999 v 23.048412 23.04842 h -6.58526 -6.58526 z"
     id="path337" />
  <path
     style="fill:#ff00cc;stroke-width:0.387368"
     d="M 352.50516,117.77771 V 96.296511 L 335.4033,69.066144 C 325.99728,54.089442 318.04587,41.443567 317.73349,40.964198 l -0.56795,-0.871578 h 7.53727 7.53727 l 13.27504,21.498941 c 7.30128,11.824417 13.38619,21.49198 13.52202,21.483469 0.13583,-0.0085 6.17829,-9.639455 13.42768,-21.4021 l 13.18072,-21.386626 7.44664,-0.105207 c 4.09566,-0.05786 7.44665,-0.01257 7.44665,0.100663 0,0.113229 -7.84421,12.751236 -17.43158,28.084461 l -17.43157,27.878592 v 21.507047 21.50705 h -6.58526 -6.58526 z"
     id="path339" />
  <path
     style="fill:#ff00cc;stroke-width:0.387368"
     d="M 3.2547024,12.074052 C 2.4099679,11.347442 2.1704961,10.753371 2.0275662,9.0298241 1.8651039,7.0707434 1.9499365,6.7765122 3.0237408,5.5747165 L 4.1975005,4.2610514 H 202.01257 399.82766 l 1.17373,1.3136651 c 1.07382,1.2017957 1.15865,1.4960269 0.99619,3.4551076 -0.14294,1.7235469 -0.38241,2.3176179 -1.22714,3.0442279 l -1.04954,0.902786 H 202.01257 4.3042535 Z"
     id="path341" />
  <path
     style="fill:#ff00cc;stroke-width:0.387368"
     d="M 218.08836,89.675763 V 40.09262 h 6.77894 6.77895 v 49.583143 49.583147 h -6.77895 -6.77894 z"
     id="path343" />
  <path
     style="fill:#ff00cc;stroke-width:0.387368"
     d="m 158.15688,140.76989 c -20.10045,-2.34007 -36.3324,-17.14581 -40.72734,-37.14887 -3.50856,-15.968803 -1.11528,-31.781957 6.60518,-43.642436 7.35873,-11.304769 19.1124,-18.721144 33.5956,-21.198284 4.66586,-0.798028 15.12326,-0.826236 20.24229,-0.0546 6.01466,0.90664 16.34751,3.779238 17.50883,4.867568 0.37169,0.348331 -0.47035,10.100313 -0.93737,10.855964 -0.2065,0.334119 -0.82801,0.249549 -2.36012,-0.321143 -14.14839,-5.270118 -31.50652,-5.640756 -41.66017,-0.889546 -10.71715,5.014884 -17.64902,15.314497 -19.5042,28.97998 -0.65978,4.860082 -0.281,14.680782 0.73743,19.119617 2.23107,9.72405 7.02841,17.1255 14.1205,21.78542 6.16283,4.04935 11.47665,5.59618 20.42115,5.94452 6.42705,0.2503 12.09489,-0.28067 16.56634,-1.55194 l 2.9781,-0.8467 V 114.07997 101.4905 l -7.84421,-0.10487 -7.8442,-0.10486 v -5.802505 -5.802502 h 14.52631 14.52631 v 22.026087 22.02609 l -3.04575,1.39225 c -3.69643,1.68968 -10.80089,3.88155 -15.20841,4.69209 -7.04049,1.29475 -16.40604,1.68991 -22.69627,0.95761 z"
     id="path345" />
  <path
     style="fill:#ff00cc;stroke-width:0.387368"
     d="M 85.221027,89.675763 V 40.09262 h 6.585262 6.585261 v 49.583143 49.583147 h -6.585261 -6.585262 z"
     id="path347" />
  <path
     style="fill:#ec4899;stroke-width:0.387368;fill-opacity:1"
     d="M 3.0989465,89.654051 V 40.049193 l 20.6273625,0.133314 20.627362,0.133314 3.873683,1.044651 c 8.622582,2.325331 14.492719,6.684958 17.923814,13.311639 2.724091,5.261203 3.376113,8.68192 3.349419,17.572078 -0.01948,6.487277 -0.141118,7.99118 -0.861577,10.652629 -2.184172,8.068517 -6.963743,14.131827 -13.712733,17.395822 -6.917616,3.34555 -11.914713,4.0953 -27.326285,4.09994 l -10.555787,0.003 v 17.43157 17.43158 H 10.071576 3.0989465 Z M 42.282843,91.668277 C 49.664022,89.727202 53.696778,85.792132 55.440392,78.82945 56.123311,76.10239 56.116269,68.080697 55.4285,65.27156 54.124409,59.945218 51.37134,56.290238 47.125005,54.247832 42.81062,52.172697 39.21212,51.713669 27.258724,51.713669 H 17.044205 v 20.586984 20.586982 l 11.136839,-0.21982 c 9.441607,-0.186363 11.588161,-0.338509 14.101799,-0.999538 z"
     id="path349" />
  <path
     style="fill:#ec4899;fill-opacity:1;stroke-width:0.387368"
     d="M 85.221027,89.675763 V 40.09262 h 6.585262 6.585261 v 49.583143 49.583147 h -6.585261 -6.585262 z"
     id="path1442" />
  <path
     style="fill:#ec4899;fill-opacity:1;stroke-width:0.387368"
     d="m 155.69174,140.22982 c -10.09218,-1.9051 -17.9752,-6.07556 -25.17264,-13.31743 -7.34892,-7.39428 -11.40935,-15.22063 -13.39024,-25.80926 -1.0196,-5.450115 -1.02859,-18.71748 -0.0158,-23.345985 3.95175,-18.060169 15.34191,-31.03444 32.17713,-36.652249 6.03343,-2.013318 10.07326,-2.587225 18.22726,-2.589411 7.4773,-0.002 10.41812,0.267638 15.51409,1.422477 3.73539,0.846506 9.00337,2.382154 10.74948,3.133539 1.40828,0.606014 1.45263,0.68569 1.45263,2.610111 0,2.190047 -0.71643,8.427084 -1.00065,8.711296 -0.0989,0.09888 -1.87523,-0.373904 -3.94746,-1.050628 -15.96325,-5.213104 -32.61483,-4.699303 -42.87449,1.322935 -5.58081,3.275837 -11.02913,9.68891 -13.59403,16.001154 -2.25626,5.552701 -2.95129,9.096476 -3.16644,16.144906 -0.25754,8.437544 0.28913,13.389275 2.06963,18.746585 3.86783,11.63786 11.84932,19.28544 23.35904,22.38183 3.4475,0.92746 4.3273,1.0001 12.42598,1.02604 8.68855,0.0278 10.29605,-0.1373 15.39789,-1.58179 l 2.03369,-0.5758 V 114.0605 101.31285 l -7.84421,-0.10486 -7.84421,-0.10486 -0.1072,-5.713685 -0.1072,-5.713682 h 14.53987 14.53986 l -0.10003,21.978577 -0.10004,21.97858 -3.48632,1.49335 c -4.22317,1.80898 -11.44356,3.92796 -16.23037,4.76315 -4.99282,0.87113 -19.57494,1.08231 -23.5052,0.3404 z"
     id="path1444" />
  <path
     style="fill:#ec4899;fill-opacity:1;stroke-width:0.387368"
     d="M 218.08836,89.675763 V 40.09262 h 6.77894 6.77895 v 49.583143 49.583147 h -6.77895 -6.77894 z"
     id="path1446" />
  <path
     style="fill:#ec4899;fill-opacity:1;stroke-width:0.387368"
     d="M 254.88835,89.675763 V 40.09262 h 30.40841 30.40841 v 5.810524 5.810525 h -23.82315 -23.82315 v 14.91368 14.913679 h 18.39999 18.4 v 5.810525 5.810525 h -18.4 -18.39999 v 23.048412 23.04842 h -6.58526 -6.58526 z"
     id="path1448" />
  <path
     style="fill:#ec4899;fill-opacity:1;stroke-width:0.387368"
     d="M 352.50516,117.58104 V 95.903166 L 335.07358,68.163953 c -9.58736,-15.256567 -17.43157,-27.817786 -17.43157,-27.91382 0,-0.09604 3.25522,-0.127183 7.23383,-0.06922 l 7.23383,0.10539 4.42791,7.166314 c 8.43964,13.659033 21.33655,34.285782 21.91935,35.056831 l 0.58559,0.774737 0.58052,-0.774737 c 0.82134,-1.096097 7.94178,-12.505173 17.40657,-27.890518 4.45625,-7.243787 8.3107,-13.392478 8.56545,-13.663757 0.34953,-0.372216 2.18951,-0.46726 7.49918,-0.387369 l 7.036,0.105867 -1.10496,1.743158 c -0.60774,0.958736 -8.36001,13.381691 -17.22729,27.606567 l -16.12231,25.86341 v 21.686044 21.68606 h -6.58526 -6.58526 z"
     id="path1450" />
  <path
     style="fill:#ec4899;fill-opacity:1;stroke-width:0.387368"
     d="M 3.3270652,11.785013 C 1.8781907,10.063123 1.8963999,7.0741912 3.3651038,5.5411947 L 4.4059978,4.4547355 H 202.01257 399.61914 l 1.0409,1.0864592 c 1.4687,1.5329965 1.48691,4.5219283 0.038,6.2438183 l -1.00278,1.191825 H 202.01257 4.3299205 Z"
     id="path1452" />
</svg>
