<?xml version="1.0" encoding="UTF-8" standalone="no"?>
<svg
   version="1.1"
   width="208"
   height="78"
   viewBox="0 0 208 78"
   id="svg136"
   sodipodi:docname="logo.svg"
   inkscape:version="1.2.2 (732a01da63, 2022-12-09)"
   xmlns:inkscape="http://www.inkscape.org/namespaces/inkscape"
   xmlns:sodipodi="http://sodipodi.sourceforge.net/DTD/sodipodi-0.dtd"
   xmlns="http://www.w3.org/2000/svg"
   xmlns:svg="http://www.w3.org/2000/svg">
  <defs
     id="defs140" />
  <sodipodi:namedview
     id="namedview138"
     pagecolor="#ffffff"
     bordercolor="#000000"
     borderopacity="0.25"
     inkscape:showpageshadow="2"
     inkscape:pageopacity="0.0"
     inkscape:pagecheckerboard="0"
     inkscape:deskcolor="#d1d1d1"
     showgrid="false"
     inkscape:zoom="1.3355659"
     inkscape:cx="119.42504"
     inkscape:cy="40.057927"
     inkscape:window-width="1920"
     inkscape:window-height="1001"
     inkscape:window-x="-9"
     inkscape:window-y="-9"
     inkscape:window-maximized="1"
     inkscape:current-layer="svg136" />
  <g
     id="tight-bounds"
     transform="matrix(3.1052632,0,0,3.1052632,0.80400847,-0.31052194)">
    <rect
       width="321.51605"
       height="112.4329"
       fill="none"
       stroke="none"
       visibility="hidden"
       id="rect129"
       x="0"
       y="134.76709"
       style="stroke-width:0.674408" />
  </g>
  <g
     id="g895"
     transform="matrix(0.633761,0,0,0.62778138,1.7726081,-81.956734)">
    <svg
       viewBox="0 0 321.51606 247.2"
       height="247.2"
       width="321.51605"
       version="1.1"
       id="svg891">
      <g
         id="g887">
        <svg
           viewBox="0 0 397.4976 305.61897"
           height="247.2"
           width="321.51605"
           version="1.1"
           id="svg885">
          <g
             id="g861">
            <rect
               width="397.49759"
               height="9.3607054"
               x="0"
               y="167.95474"
               fill="#d498ca"
               opacity="1"
               stroke-width="0"
               stroke="transparent"
               fill-opacity="1"
               class="rect-o-0"
               data-fill-palette-color="secondary"
               rx="1%"
               id="rect859"
               data-palette-color="#d498ca" />
          </g>
          <g
             transform="translate(0.9888,201.81992)"
             id="g879">
            <svg
               viewBox="0 0 395.52 103.79905"
               height="103.79905"
               width="395.51999"
               version="1.1"
               id="svg877">
              <g
                 id="g875">
                <svg
                   viewBox="0 0 395.52 103.79905"
                   height="103.79905"
                   width="395.51999"
                   id="svg873"
                   version="1.1">
                  <g
                     id="g871">
                    <svg
                       viewBox="0 0 395.52 103.79905"
                       height="103.79905"
                       width="395.51999"
                       version="1.1"
                       id="svg869">
                      <g
                         id="g867">
                        <svg
                           width="395.51999"
                           viewBox="4 -35.700001 138.69 36.400002"
                           height="103.79905"
                           data-palette-color="#d498ca"
                           version="1.1"
                           id="svg865">
                          <path
                             d="M 9,0 H 4 v -35 h 11.55 q 3.52,0 6.2,1.12 2.68,1.13 4.16,3.63 1.49,2.5 1.49,6.6 v 0 q 0,4.02 -1.49,6.54 -1.48,2.51 -4.16,3.68 -2.68,1.18 -6.2,1.18 v 0 H 9 Z m 0,-30.75 v 14.25 h 5.85 q 3.83,0 5.74,-1.74 1.91,-1.74 1.91,-5.36 v 0 q 0,-3.65 -1.81,-5.4 -1.81,-1.75 -5.84,-1.75 v 0 z M 37.35,0 H 32.6 v -35 h 4.75 z m 23.1,0.7 v 0 q -4.86,0 -8.74,-2.24 -3.89,-2.24 -6.15,-6.34 -2.26,-4.1 -2.26,-9.67 v 0 q 0,-5.53 2.33,-9.6 2.34,-4.08 6.43,-6.31 4.08,-2.24 9.33,-2.24 v 0 q 2.83,0 5.39,0.59 2.56,0.59 4.47,1.41 v 0 l -0.45,4.15 q -2.05,-0.8 -4.36,-1.33 -2.3,-0.52 -4.89,-0.52 v 0 q -4.48,0 -7.37,1.86 -2.88,1.86 -4.29,5.01 -1.4,3.15 -1.4,7.03 v 0 q 0,4 1.43,7.14 1.42,3.13 4.38,4.95 2.94,1.81 7.5,1.81 v 0 q 1.12,0 2.79,-0.2 1.68,-0.2 3.05,-0.75 v 0 -8.7 h -5.5 v -4.3 h 10.25 v 15.6 Q 70.34,-0.83 67.3,-0.06 64.25,0.7 60.45,0.7 Z M 83.69,0 h -4.75 v -35 h 4.75 z m 12.75,0 h -4.75 v -35 h 21.35 v 4.3 h -16.6 v 10.25 h 12.8 v 4.3 h -12.8 z m 33.95,0 h -4.75 V -15.15 L 113.29,-35 h 5.4 l 10.4,17 h -2.2 l 10.4,-17 h 5.4 l -12.3,19.85 z"
                             opacity="1"
                             fill="#d498ca"
                             class="undefined-text-0"
                             data-fill-palette-color="primary"
                             id="path863" />
                        </svg>
                      </g>
                    </svg>
                  </g>
                </svg>
              </g>
            </svg>
          </g>
          <g
             transform="translate(115.47024)"
             id="g881" />
          <g
             id="g883" />
        </svg>
      </g>
      <defs
         id="defs889" />
    </svg>
    <rect
       width="321.51605"
       height="112.4329"
       fill="none"
       stroke="none"
       visibility="hidden"
       id="rect893"
       x="0"
       y="134.76709"
       style="stroke-width:0.674408" />
  </g>
  <path
     style="fill:#ff00cc;stroke-width:0.197101"
     d="M 130.56329,46.929351 V 21.700392 h 15.47245 15.47244 v 2.956518 2.956519 h -12.12406 -12.12408 l 0.0516,7.539123 0.0516,7.539122 9.31303,0.05121 9.31304,0.0512 v 2.954589 2.95459 h -9.36231 -9.36231 v 11.727523 11.727527 h -3.35072 -3.35072 z"
     id="path337" />
  <path
     style="fill:#ff00cc;stroke-width:0.197101"
     d="M 180.2328,61.228221 V 50.298129 l -8.70179,-13.855391 c -4.78598,-7.620465 -8.83183,-14.054955 -8.99078,-14.298868 l -0.28898,-0.443478 h 3.83512 3.83513 l 6.75462,10.939119 c 3.71505,6.016515 6.81118,10.935577 6.88029,10.931247 0.0691,-0.0043 3.14365,-4.90476 6.83229,-10.889845 l 6.70663,-10.88197 3.78901,-0.05353 c 2.08396,-0.02944 3.78902,-0.0064 3.78902,0.05122 0,0.05761 -3.99131,6.4881 -8.86956,14.289972 l -8.86956,14.185221 V 61.21507 72.158315 h -3.35072 -3.35072 z"
     id="path339" />
  <path
     style="fill:#ff00cc;stroke-width:0.197101"
     d="M 2.5267292,7.4439479 C 2.0969103,7.0742332 1.975062,6.7719573 1.9023362,5.8949799 1.8196719,4.8981579 1.8628366,4.7484468 2.4092111,4.1369476 L 3.006445,3.4685268 H 103.65897 204.3115 l 0.59722,0.6684208 c 0.54638,0.6114992 0.58954,0.7612103 0.50688,1.7580323 -0.0727,0.8769774 -0.19458,1.1792533 -0.6244,1.548968 l -0.53402,0.4593567 H 103.65897 3.0607632 Z"
     id="path341" />
  <path
     style="fill:#ff00cc;stroke-width:0.197101"
     d="M 111.83867,46.929351 V 21.700392 h 3.44927 3.44927 v 25.228959 25.228962 h -3.44927 -3.44927 z"
     id="path343" />
  <path
     style="fill:#ff00cc;stroke-width:0.197101"
     d="M 81.344257,72.927132 C 71.11672,71.736454 62.857558,64.202978 60.621319,54.024995 58.836089,45.899728 60.05384,37.853659 63.982175,31.818794 c 3.744278,-5.752107 9.724796,-9.525717 17.094157,-10.786138 2.374089,-0.406054 7.695037,-0.420407 10.299708,-0.02778 3.060387,0.461318 8.317961,1.922957 8.90887,2.476722 0.18912,0.177239 -0.23933,5.139255 -0.476958,5.523746 -0.105072,0.170007 -0.421309,0.126976 -1.200879,-0.163404 -7.199003,-2.681549 -16.031189,-2.870137 -21.197582,-0.45262 -5.453115,2.55168 -8.980198,7.792342 -9.924153,14.745631 -0.33571,2.472913 -0.142978,7.469894 0.37522,9.728468 1.135216,4.947804 3.576205,8.713819 7.184812,11.084886 3.135779,2.060395 5.839564,2.847456 10.390716,3.024698 3.27022,0.127358 6.154137,-0.142811 8.429306,-0.78966 l 1.515321,-0.430819 v -6.40579 -6.405791 l -3.991301,-0.05336 -3.991296,-0.05335 v -2.952438 -2.952437 h 7.391296 7.391298 v 11.207343 11.207343 l -1.54974,0.708407 c -1.880827,0.859745 -5.495728,1.975015 -7.738368,2.387435 -3.582351,0.658797 -8.347742,0.859862 -11.548345,0.487253 z"
     id="path345" />
  <path
     style="fill:#ff00cc;stroke-width:0.197101"
     d="M 44.232941,46.929351 V 21.700392 h 3.350722 3.350721 v 25.228959 25.228962 h -3.350721 -3.350722 z"
     id="path347" />
  <path
     style="fill:#ec4899;fill-opacity:1;stroke-width:0.197101"
     d="M 2.4474773,46.918304 V 21.678296 l 10.4956417,0.06783 10.495641,0.06783 1.971012,0.53154 c 4.387354,1.183178 7.374204,3.401449 9.120019,6.773246 1.386075,2.677012 1.717838,4.417545 1.704255,8.941047 -0.0099,3.300865 -0.0718,4.066083 -0.438388,5.420285 -1.111354,4.105433 -3.543301,7.190574 -6.977331,8.851365 -3.51983,1.702287 -6.06246,2.083775 -13.904196,2.086136 l -5.3710091,0.0015 v 8.869554 8.869559 H 5.9952997 2.4474773 Z m 19.9376017,1.024881 c 3.755701,-0.98766 5.807653,-2.989908 6.694841,-6.532669 0.347483,-1.387586 0.3439,-5.469194 -0.0061,-6.898543 C 28.410271,31.801817 27.00945,29.942085 24.848825,28.902865 22.653574,27.846993 20.82258,27.613429 14.740438,27.613429 H 9.5431219 V 38.088525 48.56362 l 5.6666611,-0.111849 c 4.804091,-0.09483 5.896303,-0.17224 7.175296,-0.508586 z"
     id="path349" />
  <path
     style="fill:#ec4899;fill-opacity:1;stroke-width:0.197101"
     d="M 44.232941,46.929351 V 21.700392 h 3.350722 3.350721 v 25.228959 25.228962 h -3.350721 -3.350722 z"
     id="path1442" />
  <path
     style="fill:#ec4899;fill-opacity:1;stroke-width:0.197101"
     d="m 80.089941,72.652332 c -5.135116,-0.969355 -9.146165,-3.091374 -12.808375,-6.776192 -3.739287,-3.762367 -5.805321,-7.74458 -6.81324,-13.132301 -0.518794,-2.773134 -0.523368,-9.523852 -0.008,-11.878934 2.010734,-9.189399 7.80629,-15.790984 16.372409,-18.649445 3.069938,-1.024419 5.125489,-1.316435 9.274418,-1.317548 3.80461,-0.001 5.300961,0.13618 7.8939,0.723787 1.900646,0.43072 4.581106,1.212091 5.469564,1.594411 0.716563,0.308353 0.739133,0.348894 0.739133,1.32808 0,1.114343 -0.364539,4.28788 -0.509156,4.432493 -0.05032,0.05031 -0.954157,-0.19025 -2.008552,-0.534582 -8.122441,-2.652538 -16.59512,-2.391105 -21.815454,0.673138 -2.839635,1.666815 -5.611856,4.929924 -6.916932,8.141728 -1.148033,2.825332 -1.501679,4.628481 -1.611152,8.214872 -0.131041,4.293202 0.147116,6.812748 1.053072,9.538662 1.968034,5.921591 6.029187,9.812842 11.885577,11.388351 1.754162,0.471912 2.201823,0.508873 6.322604,0.522072 4.420919,0.01414 5.238849,-0.06986 7.834774,-0.804849 l 1.034785,-0.292979 v -6.486271 -6.486276 l -3.991301,-0.05336 -3.991301,-0.05335 -0.05455,-2.907244 -0.05455,-2.907244 h 7.398196 7.39819 l -0.0509,11.183169 -0.0509,11.183169 -1.77391,0.759848 c -2.148842,0.920448 -5.822731,1.99863 -8.258361,2.423593 -2.540454,0.443249 -9.960147,0.550702 -11.959947,0.173202 z"
     id="path1444" />
  <path
     style="fill:#ec4899;fill-opacity:1;stroke-width:0.197101"
     d="M 111.83867,46.929351 V 21.700392 h 3.44927 3.44927 v 25.228959 25.228962 h -3.44927 -3.44927 z"
     id="path1446" />
  <path
     style="fill:#ec4899;fill-opacity:1;stroke-width:0.197101"
     d="M 130.56329,46.929351 V 21.700392 h 15.47245 15.47244 v 2.956518 2.956519 h -12.12172 -12.12173 v 7.588398 7.588398 h 9.36231 9.36231 v 2.956519 2.956519 h -9.36231 -9.36231 v 11.727523 11.727527 h -3.35072 -3.35072 z"
     id="path1448" />
  <path
     style="fill:#ec4899;fill-opacity:1;stroke-width:0.197101"
     d="M 180.2328,61.128151 V 50.097987 l -8.86956,-14.114303 c -4.87825,-7.762866 -8.86955,-14.154282 -8.86955,-14.203146 0,-0.04887 1.65632,-0.06471 3.68072,-0.03522 l 3.68073,0.05363 2.25302,3.646373 c 4.29427,6.950007 10.85649,17.445337 11.15303,17.837663 l 0.29796,0.394202 0.29538,-0.394202 c 0.41792,-0.557718 4.04095,-6.362899 8.85683,-14.19129 2.26744,-3.685793 4.22866,-6.814378 4.35829,-6.952411 0.17785,-0.189391 1.11407,-0.237751 3.81574,-0.197101 l 3.58007,0.05387 -0.56223,0.886956 c -0.30923,0.487825 -4.25375,6.80889 -8.76561,14.046809 l -8.20338,13.159854 v 11.034321 11.03433 h -3.35072 -3.35072 z"
     id="path1450" />
  <path
     style="fill:#ec4899;fill-opacity:1;stroke-width:0.197101"
     d="M 2.563549,7.2968787 C 1.8263308,6.4207444 1.835596,4.8999122 2.5829038,4.1198909 L 3.1125329,3.5670774 H 103.65897 204.2054 l 0.52963,0.5528135 c 0.74731,0.7800213 0.75657,2.3008535 0.0193,3.1769878 l -0.51024,0.6064259 H 103.65897 3.0738231 Z"
     id="path1452" />
</svg>
